<?xml version="1.0" standalone="no"?>
<!DOCTYPE svg PUBLIC "-//W3C//DTD SVG 20010904//EN"
 "http://www.w3.org/TR/2001/REC-SVG-20010904/DTD/svg10.dtd">
<svg version="1.0" xmlns="http://www.w3.org/2000/svg"
 width="512.000000pt" height="512.000000pt" viewBox="0 0 512.000000 512.000000"
 preserveAspectRatio="xMidYMid meet">
<metadata>
Created by potrace 1.14, written by Peter Selinger 2001-2017
</metadata>
<g transform="translate(0.000000,512.000000) scale(0.100000,-0.100000)"
fill="#000000" stroke="none">
<path d="M746 3893 c-3 -16 -103 -613 -221 -1328 -118 -715 -218 -1312 -221
-1327 l-6 -28 919 0 919 0 37 228 c20 125 37 230 37 235 0 4 -281 7 -625 7
-610 0 -625 0 -625 19 0 18 84 545 96 604 l6 27 579 0 579 0 5 23 c3 12 18
105 35 207 17 102 33 197 36 213 l6 27 -581 0 c-459 0 -581 3 -580 13 0 6 24
152 52 322 l53 310 627 3 627 2 5 23 c3 12 18 105 35 207 17 102 33 197 36
213 l6 27 -915 0 -915 0 -6 -27z"/>
<path d="M3075 2903 c-286 -560 -598 -1169 -693 -1355 l-172 -338 308 0 308 0
152 310 151 310 489 0 489 0 32 -197 c17 -109 39 -249 48 -310 l18 -113 309 0
c289 0 308 1 304 18 -3 9 -112 619 -243 1355 l-239 1337 -371 0 -370 0 -520
-1017z m848 95 c27 -167 63 -396 81 -510 l33 -208 -343 0 -342 0 251 510 c138
281 256 510 262 510 7 0 30 -123 58 -302z"/>
</g>
</svg>
