<svg width="123" height="56" viewBox="0 0 123 56" fill="none" xmlns="http://www.w3.org/2000/svg">
<path d="M0 20.2991L3.38128 0.273784H16.1506L15.713 2.87473H6.01669L4.98242 8.9762H14.0124L13.5748 11.5674H4.54484L3.51056 17.6982H13.3262L12.8886 20.2991H0Z" fill="#131313"/>
<path d="M22.3438 0.273784L25.9041 8.10596H26.0632L32.249 0.273784H35.859L27.8434 10.2865L32.5175 20.2991H28.9671L25.387 12.5745H25.2278L19.0222 20.2991H15.4122L23.6168 10.2865L18.8332 0.273784H22.3438Z" fill="#131313"/>
<path d="M35.5258 20.2991L38.9071 0.273784H46.1669C47.7448 0.273784 49.0045 0.557346 49.946 1.12447C50.8941 1.69159 51.5438 2.46406 51.8952 3.44186C52.2532 4.41966 52.3295 5.52457 52.1239 6.7566C51.9118 7.98863 51.4609 9.0968 50.7714 10.0811C50.0885 11.0589 49.1769 11.8346 48.0366 12.4083C46.8962 12.9754 45.5404 13.259 43.9691 13.259H38.9668L39.3944 10.6971H44.1083C45.1094 10.6971 45.9514 10.5276 46.6343 10.1887C47.3238 9.84319 47.8642 9.37384 48.2553 8.78064C48.6465 8.18093 48.9018 7.50624 49.0211 6.7566C49.1471 5.99391 49.1139 5.32249 48.9217 4.74233C48.7294 4.15565 48.3482 3.69608 47.778 3.36363C47.2144 3.03118 46.4255 2.86495 45.4111 2.86495H41.5525L38.5988 20.2991H35.5258Z" fill="#131313"/>
<path d="M53.3844 20.2991L56.7657 0.273784H64.0255C65.6035 0.273784 66.8665 0.541049 67.8146 1.07558C68.7693 1.60359 69.4256 2.3402 69.7837 3.28541C70.1483 4.2241 70.2279 5.31271 70.0223 6.55126C69.8102 7.77677 69.3627 8.85235 68.6798 9.778C68.0035 10.7036 67.0985 11.4272 65.9648 11.9487C64.8377 12.4637 63.4852 12.7212 61.9073 12.7212H56.4077L56.8652 10.1202H62.0863C63.0874 10.1202 63.9228 9.98008 64.5924 9.69978C65.262 9.41947 65.7858 9.01206 66.1637 8.47753C66.5482 7.943 66.8002 7.30091 66.9195 6.55126C67.0455 5.78858 67.009 5.13345 66.8101 4.58588C66.6112 4.0318 66.2234 3.60808 65.6466 3.31474C65.0698 3.01488 64.2775 2.86495 63.2697 2.86495H59.4111L56.4574 20.2991H53.3844ZM64.9604 11.2643L68.4709 20.2991H64.9703L61.5492 11.2643H64.9604Z" fill="#131313"/>
<path d="M71.5166 20.2991L74.8979 0.273784H87.6672L87.2296 2.87473H77.5333L76.499 8.9762H85.529L85.0914 11.5674H76.0614L75.0271 17.6982H84.8428L84.4052 20.2991H71.5166Z" fill="#131313"/>
<path d="M101.965 5.65168C101.972 4.66737 101.647 3.91446 100.991 3.39297C100.341 2.87147 99.4328 2.61073 98.266 2.61073C97.4306 2.61073 96.6847 2.7411 96.0284 3.00185C95.3786 3.25607 94.8482 3.60808 94.4372 4.05787C94.0327 4.50114 93.7841 5.00634 93.6913 5.57346C93.6051 6.04932 93.6482 6.46 93.8206 6.80549C93.9996 7.15098 94.2548 7.44106 94.5863 7.67573C94.9245 7.90388 95.2958 8.09618 95.7002 8.25263C96.1046 8.40256 96.4958 8.52642 96.8737 8.6242L98.7831 9.13265C99.3997 9.2891 100.026 9.50096 100.663 9.76822C101.299 10.0355 101.873 10.3875 102.383 10.8242C102.894 11.261 103.275 11.802 103.527 12.4474C103.779 13.0927 103.829 13.8652 103.676 14.7648C103.477 15.899 103.01 16.9062 102.274 17.7862C101.538 18.6662 100.567 19.3604 99.3599 19.8689C98.1533 20.3774 96.7543 20.6316 95.1632 20.6316C93.6383 20.6316 92.3554 20.3936 91.3145 19.9178C90.2802 19.4419 89.5211 18.7672 89.0371 17.8937C88.5531 17.0137 88.3807 15.9707 88.5199 14.7648H91.6128C91.5399 15.4884 91.6725 16.0913 92.0106 16.5737C92.3554 17.0496 92.8393 17.4048 93.4626 17.6395C94.0858 17.8677 94.7919 17.9817 95.5808 17.9817C96.456 17.9817 97.2549 17.8481 97.9776 17.5808C98.7002 17.3071 99.2969 16.929 99.7677 16.4466C100.238 15.9577 100.527 15.3873 100.633 14.7354C100.739 14.1422 100.653 13.6566 100.374 13.2785C100.102 12.9004 99.6914 12.5875 99.1411 12.3398C98.5975 12.0921 97.9776 11.8738 97.2814 11.6847L94.9841 11.0394C93.4261 10.6026 92.246 9.96052 91.4437 9.1131C90.6415 8.26567 90.3531 7.14446 90.5785 5.74946C90.7774 4.59566 91.268 3.58853 92.0504 2.72806C92.8327 1.8676 93.8073 1.19943 94.9742 0.723573C96.1411 0.241191 97.4074 0 98.7732 0C100.152 0 101.326 0.241191 102.294 0.723573C103.262 1.20595 103.978 1.87086 104.442 2.71828C104.906 3.56571 105.068 4.54351 104.929 5.65168H101.965Z" fill="#131313"/>
<path d="M119.988 5.65168C119.995 4.66737 119.67 3.91446 119.014 3.39297C118.364 2.87147 117.456 2.61073 116.289 2.61073C115.453 2.61073 114.707 2.7411 114.051 3.00185C113.401 3.25607 112.871 3.60808 112.46 4.05787C112.055 4.50114 111.807 5.00634 111.714 5.57346C111.628 6.04932 111.671 6.46 111.843 6.80549C112.022 7.15098 112.278 7.44106 112.609 7.67573C112.947 7.90388 113.318 8.09618 113.723 8.25263C114.127 8.40256 114.518 8.52642 114.896 8.6242L116.806 9.13265C117.422 9.2891 118.049 9.50096 118.685 9.76822C119.322 10.0355 119.895 10.3875 120.406 10.8242C120.916 11.261 121.298 11.802 121.55 12.4474C121.802 13.0927 121.851 13.8652 121.699 14.7648C121.5 15.899 121.032 16.9062 120.297 17.7862C119.561 18.6662 118.589 19.3604 117.383 19.8689C116.176 20.3774 114.777 20.6316 113.186 20.6316C111.661 20.6316 110.378 20.3936 109.337 19.9178C108.303 19.4419 107.544 18.7672 107.06 17.8937C106.576 17.0137 106.403 15.9707 106.543 14.7648H109.636C109.563 15.4884 109.695 16.0913 110.033 16.5737C110.378 17.0496 110.862 17.4048 111.485 17.6395C112.109 17.8677 112.815 17.9817 113.604 17.9817C114.479 17.9817 115.278 17.8481 116 17.5808C116.723 17.3071 117.32 16.929 117.79 16.4466C118.261 15.9577 118.55 15.3873 118.656 14.7354C118.762 14.1422 118.675 13.6566 118.397 13.2785C118.125 12.9004 117.714 12.5875 117.164 12.3398C116.62 12.0921 116 11.8738 115.304 11.6847L113.007 11.0394C111.449 10.6026 110.269 9.96052 109.466 9.1131C108.664 8.26567 108.376 7.14446 108.601 5.74946C108.8 4.59566 109.291 3.58853 110.073 2.72806C110.855 1.8676 111.83 1.19943 112.997 0.723573C114.164 0.241191 115.43 0 116.796 0C118.175 0 119.348 0.241191 120.316 0.723573C121.284 1.20595 122 1.87086 122.465 2.71828C122.929 3.56571 123.091 4.54351 122.952 5.65168H119.988Z" fill="#131313"/>
<path d="M6.56437 55.593H0L14.8123 26.9174H22.7065L27.8844 55.593H21.3201L17.7974 33.4703H17.571L6.56437 55.593ZM8.06399 44.3216H23.5695L22.7489 49.0542H7.24344L8.06399 44.3216Z" fill="#FFD600"/>
<path d="M54.0783 26.9174H60.2041L57.0916 45.5398C56.7427 47.6307 55.9363 49.4603 54.6724 51.0285C53.4086 52.5966 51.8005 53.8195 49.8482 54.6969C47.8959 55.565 45.7172 55.9991 43.3121 55.9991C40.9071 55.9991 38.8793 55.565 37.2288 54.6969C35.5782 53.8195 34.3851 52.5966 33.6495 51.0285C32.9138 49.4603 32.7205 47.6307 33.0694 45.5398L36.1819 26.9174H42.3077L39.266 45.0217C39.0962 46.1138 39.1811 47.0846 39.5206 47.9341C39.8696 48.7835 40.4449 49.4509 41.2466 49.9363C42.0483 50.4217 43.0386 50.6644 44.2176 50.6644C45.4059 50.6644 46.4811 50.4217 47.4431 49.9363C48.4146 49.4509 49.2116 48.7835 49.834 47.9341C50.466 47.0846 50.8668 46.1138 51.0366 45.0217L54.0783 26.9174Z" fill="#FFD600"/>
<path d="M63.2917 31.9161L64.1406 26.9174H87.9364L87.0876 31.9161H78.2172L74.2559 55.593H68.2009L72.1621 31.9161H63.2917Z" fill="#FFD600"/>
<path d="M114.696 41.6473C114.168 44.709 113.145 47.3087 111.626 49.4463C110.117 51.5839 108.273 53.2081 106.095 54.3189C103.925 55.4297 101.586 55.9851 99.0774 55.9851C96.446 55.9851 94.1777 55.3923 92.2726 54.2069C90.3768 53.0214 89.0045 51.3085 88.1557 49.0682C87.3069 46.8186 87.1465 44.1069 87.6747 40.9332C88.184 37.8621 89.1979 35.2578 90.7164 33.1202C92.2348 30.9733 94.0882 29.3397 96.2763 28.2196C98.4644 27.0901 100.818 26.5254 103.336 26.5254C105.948 26.5254 108.202 27.1228 110.098 28.3176C112.003 29.5124 113.376 31.2393 114.215 33.4983C115.064 35.7479 115.224 38.4642 114.696 41.6473ZM108.599 40.9332C108.929 38.9636 108.915 37.3114 108.556 35.9766C108.207 34.6324 107.566 33.6149 106.632 32.9242C105.698 32.2334 104.519 31.8881 103.095 31.8881C101.549 31.8881 100.129 32.2708 98.8369 33.0362C97.5542 33.8016 96.4696 34.9124 95.5831 36.3686C94.7059 37.8155 94.0976 39.575 93.758 41.6473C93.4185 43.6262 93.4279 45.2784 93.7863 46.6039C94.1542 47.9294 94.8097 48.9329 95.7528 49.6143C96.7054 50.2864 97.8891 50.6224 99.3038 50.6224C100.841 50.6224 102.246 50.249 103.52 49.5023C104.802 48.7462 105.882 47.6494 106.759 46.2119C107.637 44.765 108.25 43.0055 108.599 40.9332Z" fill="#FFD600"/>
</svg>
