<svg width="964" height="1687" viewBox="0 0 964 1687" fill="none" xmlns="http://www.w3.org/2000/svg">
    <path
        d="M553 45C553 69.8528 532.853 90 508 90C483.147 90 463 69.8528 463 45C463 20.1472 483.147 0 508 0C532.853 0 553 20.1472 553 45ZM472 45C472 64.8822 488.118 81 508 81C527.882 81 544 64.8822 544 45C544 25.1177 527.882 9 508 9C488.118 9 472 25.1177 472 45Z"
        fill="#FFD600" />
    <path
        d="M548 65.9998C685.667 81.3332 960.2 102.8 957 65.9998C953.8 29.1998 921.333 50.6665 905.5 65.9998C873.167 94.8336 801.4 188.101 773 330.501"
        stroke="#FFD600" stroke-width="12" stroke-dasharray="12 12" />
    <path d="M474.5 472.5C354.667 477.667 112.8 546.5 104 780.5" stroke="#FFD600" stroke-width="12"
        stroke-dasharray="12 12" />
    <path
        d="M427.5 962C516.833 903.333 711.6 803.6 776 874C840.4 944.4 908.833 952.334 935 947.501C942 976.168 931.8 1064 835 1186C738.2 1308 725 1366.83 730.5 1381"
        stroke="#FFD600" stroke-width="12" stroke-dasharray="12 12" />
    <path
        d="M477.5 1379.5C369 1338.5 135.6 1292 69.9999 1434C-12.0001 1611.5 332 1446.5 181.5 1413C61.0999 1386.2 14.3333 1583.83 6 1686"
        stroke="#FFD600" stroke-width="12" stroke-dasharray="12 12" />

</svg>