<svg width="97" height="21" viewBox="0 0 97 21" fill="none" xmlns="http://www.w3.org/2000/svg">
<path d="M78 21C83.5228 21 88 16.299 88 10.5C88 4.70101 83.5228 0 78 0C72.4772 0 68 4.70101 68 10.5C68 16.299 72.4772 21 78 21Z" fill="#FFD600"/>
<path d="M75.1152 13.0028C74.7552 12.6595 74.4743 12.2423 74.291 11.7798C74.1077 11.3173 74.0267 10.8206 74.0537 10.3238C74.029 9.82793 74.1112 9.33259 74.2959 8.87172C74.4806 8.41086 74.7637 7.99541 75.124 7.65383C75.9228 7.02238 76.9105 6.67891 77.9287 6.67891C78.9469 6.67891 79.9356 7.02238 80.7344 7.65383V7.64583C81.0922 7.99017 81.3712 8.4077 81.5527 8.86989C81.7343 9.33208 81.8139 9.82801 81.7861 10.3238C81.8129 10.8202 81.7328 11.3165 81.5498 11.7788C81.3668 12.241 81.0858 12.6582 80.7266 13.0019C79.9257 13.6297 78.9376 13.9706 77.9199 13.9699C76.9024 13.9704 75.9136 13.6291 75.1133 13.0008L75.1152 13.0028ZM1.37012 13.7268C0.841599 13.5046 0.373057 13.1622 0 12.7268L1.08887 11.4809C1.35948 11.7427 1.67995 11.9474 2.03125 12.083C2.38255 12.2185 2.75745 12.2821 3.13379 12.2699C3.42048 12.2873 3.70684 12.23 3.96484 12.1038C4.05381 12.065 4.12934 12.0011 4.18262 11.9199C4.23589 11.8388 4.2644 11.7439 4.26465 11.6469C4.26465 11.2929 3.87461 11.0799 3.09961 11.0069C2.7291 10.976 2.3618 10.9175 2 10.8319C1.69154 10.7533 1.39434 10.6331 1.11816 10.4748C0.84151 10.3203 0.618438 10.0857 0.477539 9.80184C0.32215 9.46968 0.248287 9.10531 0.261719 8.73885C0.245082 8.42534 0.313672 8.11314 0.459961 7.83535C0.60625 7.55756 0.824848 7.32451 1.09277 7.16085C1.71682 6.78633 2.43463 6.59892 3.16211 6.62087C4.09496 6.60144 5.00757 6.90015 5.74805 7.46785L4.77441 8.66787C4.28952 8.32588 3.70395 8.15613 3.11133 8.18581C2.89413 8.19768 2.68169 8.25421 2.4873 8.35183C2.40728 8.38097 2.33888 8.43404 2.29004 8.5038C2.2412 8.57357 2.21483 8.65668 2.21484 8.74184C2.20603 8.83403 2.2265 8.92663 2.27441 9.00588C2.32232 9.08513 2.39474 9.14681 2.48047 9.18184C2.75119 9.27954 3.03348 9.34106 3.32031 9.36483C3.67257 9.40028 4.02061 9.46995 4.35938 9.57283C4.67188 9.67079 4.9715 9.80751 5.25 9.97982C5.52872 10.147 5.75821 10.3851 5.91504 10.6698C6.08147 10.9814 6.16373 11.3307 6.15527 11.6839C6.16777 12.1533 6.00882 12.6111 5.70703 12.9708C5.40962 13.3212 5.02134 13.5827 4.58496 13.7268C4.10397 13.8809 3.60174 13.9595 3.09668 13.9599C3.03468 13.9599 2.97118 13.9599 2.90918 13.9599C2.38715 13.9632 1.86777 13.8845 1.37012 13.7268ZM90.8379 13.7448V6.74483H94.207C94.583 6.72064 94.9594 6.77324 95.3145 6.89943C95.6695 7.02562 95.9951 7.22276 96.2715 7.47884C96.508 7.71794 96.6945 8.00198 96.8193 8.31423C96.9442 8.62648 97.0054 8.9606 96.999 9.29683C97.0076 9.63574 96.9472 9.97289 96.8223 10.288C96.6973 10.6032 96.5099 10.8898 96.2715 11.1308C95.9922 11.3821 95.666 11.5756 95.3115 11.7C94.9571 11.8245 94.5821 11.8774 94.207 11.8559H92.8066V13.7489L90.8379 13.7448ZM92.8037 10.1848H94.2031C94.3148 10.1908 94.4266 10.1723 94.5303 10.1305C94.6339 10.0887 94.7275 10.0246 94.8037 9.94283C94.9514 9.77206 95.0281 9.55137 95.0186 9.32583C95.0254 9.09826 94.9491 8.87604 94.8037 8.70083C94.7293 8.61576 94.637 8.54845 94.5332 8.5038C94.4294 8.45916 94.3161 8.43832 94.2031 8.44283H92.8037V10.1848ZM61.6113 8.39486H59.5791V6.73586H65.6289V8.39486H63.5703V13.7368L61.6113 13.7448V8.39486ZM45.1113 13.7448V6.74483H48.4766C48.8524 6.72077 49.2292 6.77343 49.584 6.89962C49.9388 7.0258 50.2648 7.22289 50.541 7.47884C50.7775 7.71794 50.963 8.00198 51.0879 8.31423C51.2128 8.62648 51.274 8.9606 51.2676 9.29683C51.2762 9.63583 51.2159 9.97305 51.0908 10.2882C50.9657 10.6034 50.7788 10.89 50.54 11.1308C50.2613 11.3822 49.9352 11.5758 49.5811 11.7003C49.2269 11.8247 48.8513 11.8776 48.4766 11.8559H47.0762V13.7489L45.1113 13.7448ZM47.0771 10.1848H48.4775C48.5891 10.1907 48.701 10.1721 48.8047 10.1303C48.9083 10.0885 49.0008 10.0245 49.0771 9.94283C49.2241 9.77171 49.3014 9.55118 49.292 9.32583C49.2996 9.09831 49.2226 8.8759 49.0771 8.70083C49.0027 8.61576 48.9105 8.54845 48.8066 8.5038C48.7028 8.45916 48.5905 8.43832 48.4775 8.44283H47.0771V10.1848ZM34.0176 13.7448L32.3623 11.4818H31.6758V13.7448H29.7373V6.74483H33.1377C33.4989 6.72378 33.8608 6.77486 34.2021 6.89504C34.5435 7.01522 34.8576 7.20211 35.126 7.44484C35.3566 7.66422 35.5386 7.92921 35.6611 8.22292C35.7837 8.51663 35.8441 8.83263 35.8379 9.15084C35.8487 9.58092 35.7364 10.0052 35.5146 10.3739C35.2273 10.7758 34.8262 11.0829 34.3633 11.2558L36.1865 13.6348V13.7519L34.0176 13.7448ZM31.707 9.97585H33.1885C33.2928 9.98323 33.3977 9.96597 33.4941 9.9255C33.5905 9.88502 33.6754 9.82244 33.7432 9.74282C33.8723 9.57993 33.94 9.37661 33.9336 9.16884C33.9404 8.94653 33.8695 8.72874 33.7334 8.55281C33.6614 8.46586 33.5686 8.39831 33.4639 8.35622C33.3591 8.31413 33.246 8.29888 33.1338 8.31185H31.6992L31.707 9.97585ZM15.0947 13.7448V6.73586H20.5498V8.40682H17.0439V9.40682H20.375V11.0199H17.0439V12.0808L20.6904 12.0728V13.7439L15.0947 13.7448Z" fill="#131313"/>
<path d="M75.1143 13.0046C74.7546 12.6613 74.4734 12.2442 74.2901 11.7819C74.1068 11.3197 74.0251 10.8232 74.0518 10.3266C74.0271 9.83072 74.1103 9.33537 74.295 8.87451C74.4797 8.41365 74.7618 7.9982 75.1221 7.65662C75.9209 7.02517 76.9096 6.68164 77.9278 6.68164C78.946 6.68164 79.9337 7.02517 80.7325 7.65662V7.64862C81.0904 7.99291 81.3701 8.41037 81.5518 8.87256C81.7336 9.33474 81.8138 9.83073 81.7862 10.3266C81.8128 10.8231 81.731 11.3194 81.5479 11.7817C81.3648 12.2439 81.0841 12.6611 80.7247 13.0046C79.9238 13.6325 78.9357 13.9733 77.918 13.9726C76.9006 13.973 75.9128 13.6318 75.1124 13.0036L75.1143 13.0046Z" fill="#18181B"/>
</svg>
