<svg xmlns="http://www.w3.org/2000/svg" width="268" height="154" fill="none">
    <g clip-path="url(#a)">
        <g fill="#F1F2F4" stroke="#fff" stroke-miterlimit="10" clip-path="url(#b)">
            <path
                d="M4.58 20.395c73.63 0 133.32-59.72 133.32-133.389 0-73.668-59.69-133.389-133.32-133.389-73.632 0-133.321 59.721-133.321 133.389 0 73.67 59.69 133.39 133.32 133.39Z" />
            <path
                d="M3.136 1.746c62.553 0 113.261-50.735 113.261-113.32 0-62.585-50.709-113.32-113.261-113.32-62.552 0-113.261 50.735-113.261 113.32 0 62.585 50.709 113.32 113.261 113.32ZM271.221 20.395c73.631 0 133.32-59.72 133.32-133.389 0-73.668-59.689-133.389-133.32-133.389S137.9-186.662 137.9-112.994c0 73.67 59.69 133.39 133.321 133.39Z" />
            <path
                d="M269.777 1.746c62.552 0 113.261-50.735 113.261-113.32 0-62.585-50.709-113.32-113.261-113.32-62.553 0-113.261 50.735-113.261 113.32 0 62.585 50.708 113.32 113.261 113.32ZM-129.965 98.717c73.631 0 133.32-59.72 133.32-133.39 0-73.668-59.689-133.389-133.32-133.389s-133.32 59.721-133.32 133.39c0 73.668 59.689 133.389 133.32 133.389Z" />
            <path
                d="M136.677 98.717c73.631 0 133.32-59.72 133.32-133.39 0-73.668-59.689-133.389-133.32-133.389S3.357-108.341 3.357-34.672c0 73.668 59.689 133.389 133.32 133.389Z" />
            <path
                d="M135.234 80.065c62.552 0 113.261-50.735 113.261-113.32 0-62.584-50.709-113.319-113.261-113.319-62.553 0-113.261 50.735-113.261 113.32 0 62.584 50.709 113.319 113.261 113.319Z" />
            <path
                d="M135.233 59.973c51.461 0 93.178-41.739 93.178-93.226s-41.717-93.226-93.178-93.226c-51.46 0-93.177 41.739-93.177 93.226s41.717 93.226 93.177 93.226Z" />
            <path
                d="M184.913 16.458c27.437-27.45 27.437-71.957 0-99.408-27.437-27.451-71.921-27.451-99.357 0-27.437 27.45-27.437 71.957 0 99.408 27.436 27.451 71.92 27.451 99.357 0Z" />
            <path
                d="M170.711 2.25c19.594-19.604 19.594-51.388 0-70.992-19.593-19.603-51.361-19.603-70.954 0-19.594 19.604-19.594 51.388 0 70.992 19.593 19.603 51.361 19.603 70.954 0Z" />
            <path
                d="M4.58 174.588c73.63 0 133.32-59.72 133.32-133.39C137.9-32.47 78.21-92.19 4.58-92.19c-73.632 0-133.321 59.72-133.321 133.389 0 73.669 59.69 133.389 133.32 133.389Z" />
            <path
                d="M3.136 155.939c62.553 0 113.261-50.735 113.261-113.32 0-62.584-50.709-113.32-113.261-113.32-62.552 0-113.261 50.736-113.261 113.32 0 62.585 50.709 113.32 113.261 113.32Z" />
            <path
                d="M3.137 135.844c51.46 0 93.177-41.739 93.177-93.226S54.597-50.607 3.137-50.607c-51.461 0-93.178 41.738-93.178 93.225 0 51.487 41.717 93.226 93.178 93.226Z" />
            <path
                d="M61.307 82.042C83.06 49.895 74.649 6.192 42.519-15.573s-75.811-13.35-97.565 18.797c-21.753 32.147-13.342 75.85 18.788 97.615s75.811 13.349 97.565-18.797Z" />
            <path
                d="M44.676 70.776c15.535-22.957 9.528-54.168-13.417-69.71-22.945-15.544-54.14-9.534-69.674 13.423-15.535 22.957-9.529 54.168 13.417 69.71 22.945 15.544 54.14 9.534 69.674-13.423Z" />
            <path
                d="M3.136 69.86c15.037 0 27.227-12.196 27.227-27.24 0-15.045-12.19-27.241-27.227-27.241S-24.09 27.575-24.09 42.619c0 15.045 12.19 27.242 27.227 27.242ZM271.221 174.588c73.631 0 133.32-59.72 133.32-133.39 0-73.668-59.689-133.388-133.32-133.388S137.9-32.47 137.9 41.199c0 73.669 59.69 133.389 133.321 133.389Z" />
            <path
                d="M269.777 155.939c62.552 0 113.261-50.735 113.261-113.32 0-62.584-50.709-113.32-113.261-113.32-62.553 0-113.261 50.736-113.261 113.32 0 62.585 50.708 113.32 113.261 113.32Z" />
            <path
                d="M269.777 135.844c51.46 0 93.178-41.739 93.178-93.226s-41.718-93.225-93.178-93.225c-51.461 0-93.178 41.738-93.178 93.225 0 51.487 41.717 93.226 93.178 93.226Z" />
            <path
                d="M319.459 92.33c27.437-27.452 27.437-71.958 0-99.41-27.437-27.45-71.921-27.45-99.358 0-27.436 27.452-27.436 71.958.001 99.41 27.436 27.45 71.92 27.45 99.357 0Z" />
            <path
                d="M305.258 78.12c19.594-19.603 19.594-51.387 0-70.99-19.594-19.604-51.361-19.604-70.955 0-19.593 19.603-19.593 51.387 0 70.99 19.594 19.604 51.361 19.604 70.955 0Z" />
            <path
                d="M269.777 69.86c15.037 0 27.227-12.196 27.227-27.24 0-15.045-12.19-27.241-27.227-27.241-15.036 0-27.226 12.196-27.226 27.24 0 15.045 12.19 27.242 27.226 27.242ZM-129.965 252.909c73.631 0 133.32-59.72 133.32-133.389 0-73.669-59.689-133.39-133.32-133.39s-133.32 59.721-133.32 133.39c0 73.669 59.689 133.389 133.32 133.389Z" />
            <path
                d="M136.677 252.909c73.631 0 133.32-59.72 133.32-133.389 0-73.669-59.689-133.39-133.32-133.39S3.357 45.852 3.357 119.52c0 73.669 59.689 133.389 133.32 133.389Z" />
            <path
                d="M135.234 234.259c62.552 0 113.261-50.735 113.261-113.319 0-62.585-50.709-113.32-113.261-113.32-62.553 0-113.261 50.735-113.261 113.32 0 62.584 50.709 113.319 113.261 113.319Z" />
            <path
                d="M135.233 214.165c51.461 0 93.178-41.738 93.178-93.226 0-51.487-41.717-93.225-93.178-93.225-51.46 0-93.177 41.738-93.177 93.225 0 51.488 41.717 93.226 93.177 93.226Z" />
            <path
                d="M184.907 170.647c27.437-27.451 27.437-71.958 0-99.409-27.437-27.45-71.92-27.45-99.357 0-27.437 27.451-27.437 71.958 0 99.409 27.437 27.451 71.92 27.451 99.357 0Z" />
            <path
                d="M170.705 156.438c19.594-19.604 19.594-51.388 0-70.991-19.593-19.604-51.361-19.604-70.954 0-19.594 19.603-19.594 51.387 0 70.991 19.593 19.604 51.361 19.604 70.954 0Z" />
            <path
                d="M135.233 148.182c15.037 0 27.227-12.196 27.227-27.241s-12.19-27.24-27.227-27.24c-15.036 0-27.226 12.195-27.226 27.24 0 15.045 12.19 27.241 27.226 27.241Z" />
            <path
                d="M4.58 328.782c73.63 0 133.32-59.72 133.32-133.389 0-73.669-59.69-133.39-133.32-133.39-73.632 0-133.321 59.721-133.321 133.39 0 73.669 59.69 133.389 133.32 133.389Z" />
            <path
                d="M3.136 310.131c62.553 0 113.261-50.735 113.261-113.319 0-62.585-50.709-113.32-113.261-113.32-62.552 0-113.261 50.735-113.261 113.32 0 62.584 50.709 113.319 113.261 113.319Z" />
            <path
                d="M3.137 290.038c51.46 0 93.177-41.738 93.177-93.226 0-51.487-41.717-93.225-93.177-93.225-51.461 0-93.178 41.738-93.178 93.225 0 51.488 41.717 93.226 93.178 93.226Z" />
            <path
                d="M61.302 236.234c21.753-32.146 13.342-75.85-18.788-97.615s-75.811-13.349-97.565 18.798c-21.754 32.146-13.342 75.85 18.788 97.615s75.811 13.349 97.565-18.798Z" />
            <path
                d="M44.67 224.969c15.536-22.957 9.529-54.167-13.417-69.71-22.945-15.543-54.14-9.533-69.674 13.424-15.535 22.957-9.528 54.167 13.417 69.71 22.945 15.543 54.14 9.533 69.675-13.424ZM271.221 328.782c73.631 0 133.32-59.72 133.32-133.389 0-73.669-59.689-133.39-133.32-133.39S137.9 121.725 137.9 195.394c0 73.669 59.69 133.389 133.321 133.389Z" />
            <path
                d="M269.777 310.131c62.552 0 113.261-50.735 113.261-113.319 0-62.585-50.709-113.32-113.261-113.32-62.553 0-113.261 50.735-113.261 113.32 0 62.584 50.708 113.319 113.261 113.319Z" />
            <path
                d="M269.777 290.038c51.46 0 93.178-41.738 93.178-93.226 0-51.487-41.718-93.225-93.178-93.225-51.461 0-93.178 41.738-93.178 93.225 0 51.488 41.717 93.226 93.178 93.226Z" />
            <path
                d="M319.454 246.518c27.437-27.451 27.437-71.958 0-99.409-27.437-27.451-71.921-27.451-99.357 0-27.437 27.451-27.437 71.958 0 99.409 27.436 27.451 71.92 27.451 99.357 0Z" />
            <path
                d="M305.252 232.309c19.594-19.604 19.594-51.387 0-70.991-19.593-19.604-51.361-19.604-70.954 0-19.594 19.604-19.594 51.387 0 70.991 19.593 19.604 51.361 19.604 70.954 0ZM-129.965 407.104c73.631 0 133.32-59.721 133.32-133.39 0-73.668-59.689-133.389-133.32-133.389s-133.32 59.721-133.32 133.389c0 73.669 59.689 133.39 133.32 133.39Z" />
            <path
                d="M136.677 407.104c73.631 0 133.32-59.721 133.32-133.39 0-73.668-59.689-133.389-133.32-133.389S3.357 200.046 3.357 273.714c0 73.669 59.689 133.39 133.32 133.39Z" />
        </g>
    </g>
    <defs>
        <clipPath id="a">
            <path fill="#fff" d="M0 0h268v154H0z" />
        </clipPath>
        <clipPath id="b">
            <path fill="#fff" d="M-191-297h864v709h-864z" />
        </clipPath>
    </defs>
</svg>