<svg width="36" height="36" viewBox="0 0 36 36" fill="none" xmlns="http://www.w3.org/2000/svg">
<g clip-path="url(#clip0_356_1080)">
<path d="M16.74 17.5401L15.6645 16.4211C15.251 15.9913 14.6838 15.7432 14.0875 15.7314C13.4912 15.7196 12.9146 15.945 12.4845 16.3581C12.2714 16.5629 12.1008 16.8076 11.9823 17.0783C11.8639 17.349 11.7999 17.6404 11.794 17.9358C11.7882 18.2312 11.8406 18.5249 11.9482 18.8001C12.0559 19.0753 12.2167 19.3266 12.4215 19.5396L14.16 21.3486C14.4837 21.6913 14.8725 21.966 15.3036 22.1566C15.7348 22.3472 16.1996 22.4499 16.671 22.4586H16.7265C17.6609 22.4559 18.5566 22.0851 19.2195 21.4266L25.161 15.4836C25.5828 15.0617 25.8197 14.4895 25.8197 13.8928C25.8197 13.2962 25.5828 12.724 25.161 12.3021C24.952 12.093 24.7039 11.9272 24.4308 11.814C24.1578 11.7008 23.8651 11.6426 23.5695 11.6426C23.2739 11.6426 22.9812 11.7008 22.7081 11.814C22.435 11.9272 22.1869 12.093 21.978 12.3021L16.74 17.5401Z" fill="#131313"/>
<path d="M18 35.9983C17.6854 35.9984 17.3741 35.9324 17.0865 35.8048C16.5 35.5483 2.86353 29.3518 2.86353 17.9983V10.8688C2.86166 9.13669 3.40578 7.44809 4.41856 6.04297C5.43134 4.63785 6.86124 3.58769 8.50503 3.04177L17.2875 0.113767C17.7502 -0.0392245 18.2499 -0.0392245 18.7125 0.113767L27.495 3.04177C29.1387 3.58789 30.5685 4.63809 31.5812 6.04317C32.594 7.44825 33.1382 9.13675 33.1365 10.8688V17.9983C33.1365 30.9253 19.3005 35.6863 18.7125 35.8828C18.4829 35.9596 18.2422 35.9986 18 35.9983ZM18 4.61977L9.92853 7.31077C9.18163 7.55954 8.53196 8.03705 8.07159 8.67565C7.61122 9.31424 7.3635 10.0815 7.36353 10.8688V17.9983C7.36353 25.1008 15.495 29.9263 18.1155 31.2958C20.751 30.1963 28.6365 26.2213 28.6365 17.9983V10.8688C28.6366 10.0815 28.3888 9.31424 27.9285 8.67565C27.4681 8.03705 26.8184 7.55954 26.0715 7.31077L18 4.61977Z" fill="#131313"/>
</g>
<defs>
<clipPath id="clip0_356_1080">
<rect width="36" height="36" fill="white"/>
</clipPath>
</defs>
</svg>
