<svg width="36" height="36" viewBox="0 0 36 36" fill="none" xmlns="http://www.w3.org/2000/svg">
<g clip-path="url(#clip0_356_1224)">
<path d="M10.5 17.25C10.5 16.6533 10.7371 16.081 11.159 15.659C11.581 15.2371 12.1533 15 12.75 15H17.25C17.8467 15 18.419 15.2371 18.841 15.659C19.2629 16.081 19.5 16.6533 19.5 17.25C19.5 17.8467 19.2629 18.419 18.841 18.841C18.419 19.2629 17.8467 19.5 17.25 19.5H12.75C12.1533 19.5 11.581 19.2629 11.159 18.841C10.7371 18.419 10.5 17.8467 10.5 17.25ZM12.75 12H23.25C23.8467 12 24.419 11.7629 24.841 11.341C25.2629 10.919 25.5 10.3467 25.5 9.75C25.5 9.15326 25.2629 8.58097 24.841 8.15901C24.419 7.73705 23.8467 7.5 23.25 7.5H12.75C12.1533 7.5 11.581 7.73705 11.159 8.15901C10.7371 8.58097 10.5 9.15326 10.5 9.75C10.5 10.3467 10.7371 10.919 11.159 11.341C11.581 11.7629 12.1533 12 12.75 12ZM31.5 29.961V34.374C31.4999 34.695 31.4047 35.0087 31.2264 35.2755C31.048 35.5424 30.7946 35.7504 30.4981 35.8732C30.2015 35.996 29.8752 36.0282 29.5604 35.9656C29.2456 35.903 28.9565 35.7484 28.7295 35.5215L27 33.792L25.2705 35.5215C25.0435 35.7484 24.7544 35.903 24.4396 35.9656C24.1248 36.0282 23.7985 35.996 23.5019 35.8732C23.2054 35.7504 22.952 35.5424 22.7736 35.2755C22.5953 35.0087 22.5001 34.695 22.5 34.374V29.961C21.1426 28.9395 20.1732 27.4865 19.7511 25.8409C19.3291 24.1953 19.4794 22.4551 20.1775 20.9064C20.8757 19.3576 22.08 18.0925 23.5925 17.3189C25.105 16.5454 26.8356 16.3095 28.5 16.65V8.25C28.5 7.25544 28.1049 6.30161 27.4016 5.59835C26.6984 4.89509 25.7446 4.5 24.75 4.5L11.2605 4.557C10.7672 4.55562 10.2784 4.6516 9.82221 4.83943C9.36603 5.02727 8.95139 5.30327 8.60206 5.65163C8.25273 5.99999 7.97556 6.41385 7.78645 6.86951C7.59734 7.32516 7.5 7.81366 7.5 8.307V26.25C7.5 27.2446 7.89509 28.1984 8.59835 28.9016C9.30161 29.6049 10.2554 30 11.25 30H17.25C17.8467 30 18.419 30.2371 18.841 30.659C19.2629 31.081 19.5 31.6533 19.5 32.25C19.5 32.8467 19.2629 33.419 18.841 33.841C18.419 34.2629 17.8467 34.5 17.25 34.5H11.25C9.06282 34.4972 6.96601 33.6271 5.41944 32.0806C3.87286 30.534 3.00278 28.4372 3 26.25V8.307C3.00278 6.11982 3.87286 4.02301 5.41944 2.47644C6.96601 0.929864 9.06282 0.0597784 11.25 0.057L24.7395 0C26.9283 0.000791692 29.0273 0.869905 30.576 2.41661C32.1246 3.96331 32.9964 6.06124 33 8.25V19.5465C33.5907 20.3267 34.0208 21.2164 34.2653 22.164C34.5098 23.1116 34.5639 24.0983 34.4244 25.0669C34.2849 26.0356 33.9545 26.9669 33.4526 27.807C32.9506 28.6471 32.2869 29.3792 31.5 29.961ZM24 24C24 24.5933 24.1759 25.1734 24.5056 25.6667C24.8352 26.1601 25.3038 26.5446 25.8519 26.7716C26.4001 26.9987 27.0033 27.0581 27.5853 26.9424C28.1672 26.8266 28.7018 26.5409 29.1213 26.1213C29.5409 25.7018 29.8266 25.1672 29.9424 24.5853C30.0581 24.0033 29.9987 23.4001 29.7716 22.8519C29.5446 22.3038 29.1601 21.8352 28.6667 21.5056C28.1734 21.1759 27.5933 21 27 21C26.2044 21 25.4413 21.3161 24.8787 21.8787C24.3161 22.4413 24 23.2043 24 24Z" fill="#131313"/>
</g>
<defs>
<clipPath id="clip0_356_1224">
<rect width="36" height="36" fill="white"/>
</clipPath>
</defs>
</svg>
