<svg viewBox="0 0 36 36" fill="none" xmlns="http://www.w3.org/2000/svg">
    <g clip-path="url(#clip0_356_1248)">
        <path
            d="M24.9779 23.322C25.3546 23.7788 25.536 24.3656 25.483 24.9552C25.4299 25.5449 25.1466 26.0899 24.6944 26.472C23.2194 27.6847 21.396 28.3952 19.4894 28.5C18.2833 28.4879 17.1223 28.0399 16.2209 27.2385C16.1083 27.1444 15.9901 27.0572 15.8669 26.9775C15.2623 27.1992 14.7032 27.529 14.2169 27.951C13.7654 28.3326 13.1819 28.5211 12.5925 28.4759C12.0031 28.4307 11.4552 28.1553 11.0672 27.7094C10.6792 27.2634 10.4822 26.6827 10.5189 26.0927C10.5557 25.5028 10.8231 24.9509 11.2634 24.5565C12.5634 23.3829 14.2084 22.6615 15.9524 22.5C17.0794 22.5215 18.1612 22.9474 19.0004 23.7C19.3844 24 19.4054 24 19.4894 24C20.3423 23.8986 21.149 23.5574 21.8159 23.016C22.2761 22.6382 22.8674 22.4583 23.4601 22.5157C24.0528 22.573 24.5986 22.863 24.9779 23.322ZM23.2499 15H12.7499C12.1531 15 11.5808 15.2371 11.1589 15.659C10.7369 16.081 10.4999 16.6533 10.4999 17.25C10.4999 17.8468 10.7369 18.4191 11.1589 18.841C11.5808 19.263 12.1531 19.5 12.7499 19.5H23.2499C23.8466 19.5 24.4189 19.263 24.8409 18.841C25.2628 18.4191 25.4999 17.8468 25.4999 17.25C25.4999 16.6533 25.2628 16.081 24.8409 15.659C24.4189 15.2371 23.8466 15 23.2499 15ZM32.9999 10.7355V27.75C32.9975 29.9373 32.1275 32.0344 30.5809 33.581C29.0342 35.1277 26.9372 35.9977 24.7499 36H11.2499C9.06257 35.9977 6.96554 35.1277 5.41888 33.581C3.87222 32.0344 3.00226 29.9373 2.99988 27.75V8.25003C3.00226 6.06273 3.87222 3.96569 5.41888 2.41903C6.96554 0.872371 9.06257 0.00241211 11.2499 2.98516e-05H22.2644C23.3482 -0.00289525 24.4219 0.209176 25.4232 0.623968C26.4245 1.03876 27.3336 1.64804 28.0979 2.41653L30.5834 4.90203C31.3519 5.6663 31.9611 6.57541 32.3759 7.57673C32.7907 8.57805 33.0028 9.6517 32.9999 10.7355ZM28.4999 27.75V10.5H25.4999C24.7042 10.5 23.9412 10.184 23.3786 9.62135C22.8159 9.05874 22.4999 8.29568 22.4999 7.50003V4.50003H11.2499C10.2553 4.50003 9.30149 4.89512 8.59823 5.59838C7.89497 6.30164 7.49988 7.25547 7.49988 8.25003V27.75C7.49988 28.7446 7.89497 29.6984 8.59823 30.4017C9.30149 31.1049 10.2553 31.5 11.2499 31.5H24.7499C25.7444 31.5 26.6983 31.1049 27.4015 30.4017C28.1048 29.6984 28.4999 28.7446 28.4999 27.75Z"
            fill="#131313" />
    </g>
    <defs>
        <clipPath id="clip0_356_1248">
            <rect width="36" height="36" fill="white" />
        </clipPath>
    </defs>
</svg>