<svg width="36" height="36" viewBox="0 0 36 36" fill="none" xmlns="http://www.w3.org/2000/svg">
<g clip-path="url(#clip0_356_1636)">
<path d="M24.7502 21.75C24.7502 22.3468 24.5132 22.9191 24.0912 23.341C23.6692 23.763 23.097 24 22.5002 24H20.2502V26.25C20.2502 26.8468 20.0132 27.4191 19.5912 27.841C19.1692 28.263 18.597 28.5 18.0002 28.5C17.4035 28.5 16.8312 28.263 16.4092 27.841C15.9873 27.4191 15.7502 26.8468 15.7502 26.25V24H13.5002C12.9035 24 12.3312 23.763 11.9092 23.341C11.4873 22.9191 11.2502 22.3468 11.2502 21.75C11.2502 21.1533 11.4873 20.581 11.9092 20.159C12.3312 19.7371 12.9035 19.5 13.5002 19.5H15.7502V17.25C15.7502 16.6533 15.9873 16.081 16.4092 15.659C16.8312 15.2371 17.4035 15 18.0002 15C18.597 15 19.1692 15.2371 19.5912 15.659C20.0132 16.081 20.2502 16.6533 20.2502 17.25V19.5H22.5002C23.097 19.5 23.6692 19.7371 24.0912 20.159C24.5132 20.581 24.7502 21.1533 24.7502 21.75ZM33.0002 12.2355V27.75C32.9978 29.9373 32.1279 32.0344 30.5812 33.581C29.0346 35.1277 26.9375 35.9977 24.7502 36H11.2502C9.06291 35.9977 6.96587 35.1277 5.41921 33.581C3.87255 32.0344 3.0026 29.9373 3.00021 27.75V8.25003C3.0026 6.06273 3.87255 3.96569 5.41921 2.41903C6.96587 0.872371 9.06291 0.00241211 11.2502 2.98516e-05H20.7647C21.8485 -0.00289525 22.9222 0.209176 23.9235 0.623968C24.9248 1.03876 25.8339 1.64804 26.5982 2.41653L30.5837 6.40203C31.3522 7.1663 31.9615 8.07541 32.3763 9.07673C32.7911 10.0781 33.0031 11.1517 33.0002 12.2355ZM28.5002 27.75V13.5H22.5002C21.7046 13.5 20.9415 13.184 20.3789 12.6214C19.8163 12.0587 19.5002 11.2957 19.5002 10.5V4.50003H11.2502C10.2557 4.50003 9.30182 4.89512 8.59856 5.59838C7.8953 6.30164 7.50021 7.25547 7.50021 8.25003V27.75C7.50021 28.7446 7.8953 29.6984 8.59856 30.4017C9.30182 31.1049 10.2557 31.5 11.2502 31.5H24.7502C25.7448 31.5 26.6986 31.1049 27.4019 30.4017C28.1051 29.6984 28.5002 28.7446 28.5002 27.75Z" fill="#131313"/>
</g>
<defs>
<clipPath id="clip0_356_1636">
<rect width="36" height="36" fill="white"/>
</clipPath>
</defs>
</svg>
