<svg width="36" height="36" viewBox="0 0 36 36" fill="none" xmlns="http://www.w3.org/2000/svg">
<g clip-path="url(#clip0_356_1128)">
<path d="M27.7501 14.25C28.3469 14.25 28.9191 14.0129 29.3411 13.591C29.7631 13.169 30.0001 12.5967 30.0001 12V10.9695C29.9973 8.85671 29.1568 6.83125 27.6628 5.33728C26.1689 3.84331 24.1434 3.00278 22.0306 3H20.2501V2.25C20.2501 1.65326 20.0131 1.08097 19.5911 0.65901C19.1692 0.237053 18.5969 0 18.0001 0C17.4034 0 16.8311 0.237053 16.4091 0.65901C15.9872 1.08097 15.7501 1.65326 15.7501 2.25V3H13.9696C12.0563 2.99715 10.2059 3.68271 8.75629 4.93145C7.30671 6.18019 6.35475 7.90876 6.07431 9.80138C5.79388 11.694 6.20369 13.6243 7.22888 15.2398C8.25407 16.8552 9.82622 18.0479 11.6581 18.6L15.7501 19.719V28.5H13.9696C13.0498 28.4988 12.168 28.1329 11.5176 27.4825C10.8672 26.8321 10.5013 25.9503 10.5001 25.0305V24C10.5001 23.4033 10.2631 22.831 9.84111 22.409C9.41915 21.9871 8.84685 21.75 8.25012 21.75C7.65338 21.75 7.08108 21.9871 6.65913 22.409C6.23717 22.831 6.00012 23.4033 6.00012 24V25.0305C6.00289 27.1433 6.84343 29.1687 8.3374 30.6627C9.83137 32.1567 11.8568 32.9972 13.9696 33H15.7501V33.75C15.7501 34.3467 15.9872 34.919 16.4091 35.341C16.8311 35.7629 17.4034 36 18.0001 36C18.5969 36 19.1692 35.7629 19.5911 35.341C20.0131 34.919 20.2501 34.3467 20.2501 33.75V33H22.0306C23.9439 33.0028 25.7944 32.3173 27.2439 31.0685C28.6935 29.8198 29.6455 28.0912 29.9259 26.1986C30.2064 24.306 29.7965 22.3757 28.7714 20.7602C27.7462 19.1448 26.174 17.9521 24.3421 17.4L20.2501 16.284V7.5H22.0306C22.9504 7.50119 23.8322 7.86711 24.4826 8.51751C25.133 9.16791 25.4989 10.0497 25.5001 10.9695V12C25.5001 12.5967 25.7372 13.169 26.1591 13.591C26.5811 14.0129 27.1534 14.25 27.7501 14.25ZM23.0731 21.7185C23.8644 21.9679 24.5403 22.4925 24.9781 23.1972C25.416 23.9019 25.5869 24.7402 25.46 25.5601C25.333 26.38 24.9166 27.1273 24.2861 27.6667C23.6556 28.206 22.8528 28.5016 22.0231 28.5H20.2501V20.9475L23.0731 21.7185ZM15.7501 15.0525L12.9271 14.2815C12.1364 14.0323 11.461 13.5084 11.0231 12.8044C10.5852 12.1005 10.4137 11.263 10.5397 10.4436C10.6657 9.6242 11.0808 8.87693 11.7099 8.33702C12.339 7.7971 13.1406 7.50019 13.9696 7.5H15.7501V15.0525Z" fill="#131313"/>
</g>
<defs>
<clipPath id="clip0_356_1128">
<rect width="36" height="36" fill="white"/>
</clipPath>
</defs>
</svg>
