<svg width="36" height="36" viewBox="0 0 36 36" fill="none" xmlns="http://www.w3.org/2000/svg">
<g clip-path="url(#clip0_356_218)">
<path d="M9.75012 23.9995C10.1951 23.9995 10.6301 24.1315 11.0001 24.3787C11.3702 24.626 11.6585 24.9774 11.8288 25.3885C11.9991 25.7996 12.0437 26.252 11.9569 26.6885C11.8701 27.1249 11.6558 27.5259 11.3411 27.8405C11.0264 28.1552 10.6255 28.3695 10.1891 28.4563C9.75261 28.5431 9.30021 28.4986 8.88908 28.3283C8.47794 28.158 8.12654 27.8696 7.87931 27.4996C7.63208 27.1296 7.50012 26.6945 7.50012 26.2495C7.50012 25.6528 7.73717 25.0805 8.15912 24.6585C8.58108 24.2366 9.15338 23.9995 9.75012 23.9995ZM14.2501 35.791C16.3311 35.4029 18.2709 34.4672 19.87 33.0801C21.469 31.693 22.6694 29.9048 23.3476 27.8995C23.9893 26.0452 24.1544 24.0593 23.8276 22.1245L24.8491 21.091C25.2683 20.6676 25.5024 20.0953 25.5001 19.4995V16.4995H26.2501C26.7426 16.4995 27.2302 16.4025 27.6852 16.2141C28.1401 16.0256 28.5535 15.7494 28.9018 15.4012C29.25 15.053 29.5262 14.6396 29.7147 14.1846C29.9031 13.7296 30.0001 13.242 30.0001 12.7495V11.9995H31.8766C32.6131 11.9993 33.3334 11.7832 33.9484 11.378C34.5635 10.9728 35.0463 10.3962 35.3371 9.71953C35.8772 8.47635 36.092 7.11614 35.9611 5.76703C35.7853 4.16783 35.0205 2.69132 33.8157 1.62514C32.6109 0.558962 31.0523 -0.0205385 29.4436 -0.000472355C28.3592 -0.00334952 27.285 0.208878 26.2832 0.623928C25.2813 1.03898 24.3718 1.64861 23.6071 2.41753L13.8571 12.1675C11.9265 11.8446 9.94567 12.0128 8.09711 12.6565C5.41214 13.5835 3.14304 15.4328 1.69346 17.8756C0.243875 20.3184 -0.292191 23.1961 0.180618 25.997C0.653427 28.7979 2.10445 31.3402 4.27558 33.1717C6.4467 35.0033 9.19713 36.0053 12.0376 35.9995C12.7799 35.9975 13.5205 35.9277 14.2501 35.791ZM13.9726 16.7995C14.3568 16.9063 14.7624 16.9092 15.148 16.8077C15.5336 16.7062 15.8853 16.5041 16.1671 16.222L26.7886 5.60203C27.1362 5.25179 27.5499 4.97401 28.0056 4.78476C28.4614 4.59551 28.9501 4.49856 29.4436 4.49953C29.9355 4.48783 30.4147 4.65672 30.7906 4.97428C31.1664 5.29183 31.413 5.73606 31.4836 6.22303C31.5275 6.65228 31.4867 7.08597 31.3636 7.49953H29.2501C28.2556 7.49953 27.3017 7.89462 26.5985 8.59788C25.8952 9.30114 25.5001 10.255 25.5001 11.2495V11.9995H24.7501C23.7556 11.9995 22.8017 12.3946 22.0985 13.0979C21.3952 13.8011 21.0001 14.755 21.0001 15.7495V18.5755L19.7671 19.822C19.4879 20.1043 19.2884 20.4555 19.1888 20.8399C19.0892 21.2243 19.0931 21.6282 19.2001 22.0105C19.618 23.4645 19.5793 25.0118 19.0891 26.443C18.6755 27.646 17.9628 28.7239 17.0179 29.5756C16.073 30.4272 14.927 31.0245 13.6877 31.3113C12.4484 31.5981 11.1565 31.565 9.93356 31.2151C8.71059 30.8652 7.59671 30.21 6.69667 29.3111C5.79664 28.4122 5.14002 27.2991 4.78857 26.0766C4.43712 24.8541 4.40239 23.5622 4.68765 22.3226C4.9729 21.0829 5.56877 19.9362 6.41921 18.9902C7.26964 18.0443 8.34671 17.3301 9.54912 16.915C10.3174 16.6499 11.1244 16.5141 11.9371 16.513C12.6255 16.5157 13.3103 16.612 13.9726 16.7995Z" fill="#131313"/>
</g>
<defs>
<clipPath id="clip0_356_218">
<rect width="36" height="36" fill="white"/>
</clipPath>
</defs>
</svg>
