<svg width="20" height="20" viewBox="0 0 20 20" fill="none" xmlns="http://www.w3.org/2000/svg">
<path d="M6.974 11.8066H7.666C7.972 11.8066 8.222 11.8696 8.416 11.9966C8.614 12.1236 8.759 12.3136 8.853 12.5646C8.949 12.8166 8.997 13.1296 8.997 13.5056C8.997 13.7896 8.97 14.0356 8.914 14.2456C8.861 14.4556 8.781 14.6316 8.673 14.7736C8.56624 14.9135 8.42398 15.0223 8.261 15.0886C8.07117 15.161 7.86912 15.196 7.666 15.1916H6.974V11.8066Z" fill="#131313"/>
<path d="M3 4C3 3.46957 3.21071 2.96086 3.58579 2.58579C3.96086 2.21071 4.46957 2 5 2H11C11.5304 2 12.0391 2.21071 12.4142 2.58579C12.7893 2.96086 13 3.46957 13 4V12C13.5304 12 14.0391 12.2107 14.4142 12.5858C14.7893 12.9609 15 13.4696 15 14V14.5C15 14.6326 15.0527 14.7598 15.1464 14.8536C15.2402 14.9473 15.3674 15 15.5 15C15.6326 15 15.7598 14.9473 15.8536 14.8536C15.9473 14.7598 16 14.6326 16 14.5V10H15.5C15.3674 10 15.2402 9.94732 15.1464 9.85355C15.0527 9.75979 15 9.63261 15 9.5V6.375C15 6.24239 15.0527 6.11521 15.1464 6.02145C15.2402 5.92768 15.3674 5.875 15.5 5.875H16.995C16.984 5.399 16.942 4.981 16.794 4.653C16.7148 4.46228 16.5767 4.30183 16.4 4.195C16.216 4.085 15.936 4 15.5 4C15.3674 4 15.2402 3.94732 15.1464 3.85355C15.0527 3.75979 15 3.63261 15 3.5C15 3.36739 15.0527 3.24021 15.1464 3.14645C15.2402 3.05268 15.3674 3 15.5 3C16.064 3 16.534 3.11 16.912 3.336C17.295 3.564 17.546 3.887 17.706 4.243C18.001 4.898 18 5.708 18 6.324V9.5C18 9.63261 17.9473 9.75979 17.8536 9.85355C17.7598 9.94732 17.6326 10 17.5 10H17V14.5C17 14.8978 16.842 15.2794 16.5607 15.5607C16.2794 15.842 15.8978 16 15.5 16C15.1022 16 14.7206 15.842 14.4393 15.5607C14.158 15.2794 14 14.8978 14 14.5V14C14 13.7348 13.8946 13.4804 13.7071 13.2929C13.5196 13.1054 13.2652 13 13 13V17H13.5C13.6326 17 13.7598 17.0527 13.8536 17.1464C13.9473 17.2402 14 17.3674 14 17.5C14 17.6326 13.9473 17.7598 13.8536 17.8536C13.7598 17.9473 13.6326 18 13.5 18H2.5C2.36739 18 2.24021 17.9473 2.14645 17.8536C2.05268 17.7598 2 17.6326 2 17.5C2 17.3674 2.05268 17.2402 2.14645 17.1464C2.24021 17.0527 2.36739 17 2.5 17H3V4ZM5 4.5V9.5C5 9.63261 5.05268 9.75979 5.14645 9.85355C5.24021 9.94732 5.36739 10 5.5 10H10.5C10.6326 10 10.7598 9.94732 10.8536 9.85355C10.9473 9.75979 11 9.63261 11 9.5V4.5C11 4.36739 10.9473 4.24021 10.8536 4.14645C10.7598 4.05268 10.6326 4 10.5 4H5.5C5.36739 4 5.24021 4.05268 5.14645 4.14645C5.05268 4.24021 5 4.36739 5 4.5ZM6 11V16H7.796C8.292 16 8.702 15.901 9.026 15.703C9.353 15.506 9.597 15.219 9.758 14.843C9.919 14.466 10 14.015 10 13.487C10 12.962 9.92 12.514 9.758 12.143C9.61412 11.789 9.35986 11.4909 9.033 11.293C8.71 11.098 8.296 11 7.796 11H6Z" fill="#131313"/>
</svg>
